<svg width="100" height="100" viewBox="0 0 100 100" fill="none" xmlns="http://www.w3.org/2000/svg">
<rect width="100" height="100" rx="50" fill="#FDF6F3"/>
<path d="M62.96 50.0002C61.282 48.5936 59.1489 47.847 56.96 47.9002H42.89C42.2485 47.9164 41.6103 47.803 41.0137 47.5667C40.417 47.3305 39.8741 46.9763 39.4176 46.5254C38.961 46.0744 38.6002 45.536 38.3566 44.9423C38.113 44.3486 37.9917 43.7118 38 43.0702C37.9844 42.8204 37.9844 42.5699 38 42.3202C38.1892 41.1736 38.7904 40.1355 39.6908 39.4008C40.5912 38.6662 41.7288 38.2854 42.89 38.3302H56.75C57.8806 38.3292 58.9748 38.7298 59.8374 39.4606C60.7001 40.1914 61.2751 41.2048 61.46 42.3202H65.96C65.7716 40.007 64.7196 37.8494 63.0132 36.2764C61.3068 34.7033 59.0709 33.8301 56.75 33.8302H52.01V26.9302H48.26V33.8302H42.89C40.5692 33.8301 38.3332 34.7033 36.6268 36.2764C34.9204 37.8494 33.8684 40.007 33.68 42.3202C33.6644 42.5699 33.6644 42.8204 33.68 43.0702C33.68 44.2797 33.9182 45.4773 34.3811 46.5947C34.8439 47.7121 35.5223 48.7274 36.3776 49.5826C38.1048 51.3098 40.4474 52.2802 42.89 52.2802H57.11C57.7464 52.2642 58.3796 52.3757 58.9723 52.6082C59.5649 52.8408 60.105 53.1896 60.5608 53.6341C61.0165 54.0787 61.3786 54.6099 61.6258 55.1966C61.873 55.7833 62.0002 56.4135 62 57.0502C62.029 57.3896 62.029 57.7308 62 58.0702C61.7618 59.1257 61.1718 60.0689 60.3268 60.7449C59.4818 61.4209 58.4321 61.7895 57.35 61.7902H43.25C42.1679 61.7895 41.1182 61.4209 40.2732 60.7449C39.4282 60.0689 38.8382 59.1257 38.6 58.0702H34.07C34.3278 60.3242 35.4059 62.4047 37.0989 63.915C38.7918 65.4254 40.9812 66.2601 43.25 66.2602H48.26V73.0702H52.01V66.2602H57.11C59.3788 66.2601 61.5682 65.4254 63.2612 63.915C64.9541 62.4047 66.0322 60.3242 66.29 58.0702V57.0502C66.2864 55.7027 65.9862 54.3725 65.4107 53.1541C64.8352 51.9357 63.9985 50.8589 62.96 50.0002Z" fill="#D9450F"/>
</svg>
