<svg width="100" height="100" viewBox="0 0 100 100" fill="none" xmlns="http://www.w3.org/2000/svg">
<rect width="100" height="100" rx="50" fill="#FDF6F3"/>
<g clip-path="url(#clip0_19_368)">
<path fill-rule="evenodd" clip-rule="evenodd" d="M50 33.4999C47.119 33.4997 44.3478 34.6048 42.2575 36.5874C40.1672 38.57 38.9171 41.2789 38.765 44.1559L38.645 46.5169L36.29 46.2769C35.0936 46.1521 33.8905 46.4419 32.8822 47.098C31.8739 47.754 31.1215 48.7364 30.7508 49.8807C30.3801 51.0251 30.4137 52.2621 30.8458 53.3847C31.278 54.5073 32.0826 55.4475 33.125 56.0479C33.6376 56.3484 34.0105 56.8394 34.1623 57.4138C34.3142 57.9882 34.2327 58.5994 33.9356 59.1139C33.6385 59.6285 33.15 60.0046 32.5766 60.1603C32.0032 60.316 31.3915 60.2385 30.875 59.9449C29.1042 58.9263 27.6982 57.3771 26.8556 55.5161C26.013 53.6551 25.7764 51.5764 26.1793 49.5737C26.5821 47.5709 27.6041 45.7454 29.1007 44.355C30.5974 42.9646 32.4931 42.0795 34.52 41.8249C35.1521 38.4735 36.8548 35.4179 39.3721 33.117C41.8895 30.8161 45.0855 29.3943 48.48 29.0652C51.8746 28.7361 55.2842 29.5176 58.1966 31.2921C61.109 33.0666 63.3669 35.7384 64.631 38.9059C66.8204 39.2763 68.8512 40.2864 70.4676 41.8088C72.0841 43.3313 73.2138 45.298 73.7145 47.4613C74.2153 49.6247 74.0646 51.8878 73.2815 53.9656C72.4984 56.0435 71.118 57.8431 69.314 59.1379C68.8294 59.4864 68.2263 59.6281 67.6372 59.5319C67.0482 59.4357 66.5215 59.1094 66.173 58.6249C65.8245 58.1403 65.6828 57.5372 65.779 56.9481C65.8752 56.3591 66.2014 55.8324 66.686 55.4839C67.8348 54.659 68.6956 53.4942 69.1467 52.1538C69.5978 50.8133 69.6165 49.3651 69.2001 48.0135C68.7837 46.6619 67.9533 45.4752 66.8261 44.621C65.6989 43.7668 64.3318 43.2882 62.918 43.2529L61.268 43.2109L60.812 41.6269C60.1347 39.2831 58.7139 37.223 56.7637 35.7571C54.8135 34.2912 52.4397 33.499 50 33.4999ZM47.591 45.2719C47.441 46.4869 46.526 47.4439 45.398 47.9119C44.426 48.3199 43.528 48.8399 42.704 49.4719C41.732 50.2159 40.448 50.5279 39.317 50.0509C38.9906 49.9134 38.6252 49.8997 38.2894 50.0124C37.9536 50.1251 37.6704 50.3563 37.493 50.6629L36.527 52.3369C36.3498 52.6438 36.2907 53.005 36.3608 53.3524C36.431 53.6999 36.6255 54.0097 36.908 54.2239C37.883 54.9619 38.258 56.2279 38.099 57.4429C37.9637 58.4765 37.9637 59.5233 38.099 60.5569C38.258 61.7719 37.883 63.0379 36.908 63.7759C36.6255 63.99 36.431 64.2999 36.3608 64.6474C36.2907 64.9948 36.3498 65.3559 36.527 65.6629L37.493 67.3369C37.859 67.9729 38.642 68.2369 39.317 67.9489C40.448 67.4719 41.732 67.7839 42.704 68.5279C43.528 69.1599 44.426 69.6799 45.398 70.0879C46.526 70.5559 47.438 71.5129 47.591 72.7279C47.681 73.4539 48.299 73.9999 49.031 73.9999H50.966C51.701 73.9999 52.316 73.4539 52.409 72.7279C52.559 71.5129 53.474 70.5559 54.602 70.0879C55.574 69.6799 56.472 69.1599 57.296 68.5279C58.268 67.7839 59.552 67.4719 60.68 67.9489C61.0071 68.0881 61.3739 68.1026 61.711 67.9899C62.0482 67.8771 62.3324 67.6448 62.51 67.3369L63.473 65.6629C63.6502 65.3559 63.7093 64.9948 63.6392 64.6474C63.569 64.2999 63.3745 63.99 63.092 63.7759C62.117 63.0379 61.742 61.7719 61.901 60.5569C62.0362 59.5233 62.0362 58.4765 61.901 57.4429C61.742 56.2279 62.117 54.9619 63.092 54.2239C63.3745 54.0097 63.569 53.6999 63.6392 53.3524C63.7093 53.005 63.6502 52.6438 63.473 52.3369L62.507 50.6629C62.3295 50.3556 62.0458 50.1238 61.7093 50.0111C61.3728 49.8984 61.0068 49.9126 60.68 50.0509C59.552 50.5279 58.268 50.2159 57.296 49.4719C56.4695 48.8371 55.5639 48.3127 54.602 47.9119C53.474 47.4439 52.562 46.4869 52.409 45.2719C52.3651 44.9208 52.1946 44.5979 51.9295 44.3636C51.6643 44.1294 51.3228 44.0001 50.969 43.9999H49.034C48.6797 43.9993 48.3374 44.1284 48.0716 44.3627C47.8059 44.5969 47.6349 44.9203 47.591 45.2719ZM57.5 58.9999C57.5 60.989 56.7098 62.8967 55.3033 64.3032C53.8968 65.7097 51.9891 66.4999 50 66.4999C48.0109 66.4999 46.1032 65.7097 44.6967 64.3032C43.2902 62.8967 42.5 60.989 42.5 58.9999C42.5 57.0108 43.2902 55.1031 44.6967 53.6966C46.1032 52.2901 48.0109 51.4999 50 51.4999C51.9891 51.4999 53.8968 52.2901 55.3033 53.6966C56.7098 55.1031 57.5 57.0108 57.5 58.9999ZM50 55.9999C50.7956 55.9999 51.5587 56.316 52.1213 56.8786C52.6839 57.4412 53 58.2042 53 58.9999C53 59.7955 52.6839 60.5586 52.1213 61.1212C51.5587 61.6838 50.7956 61.9999 50 61.9999C49.2043 61.9999 48.4413 61.6838 47.8787 61.1212C47.3161 60.5586 47 59.7955 47 58.9999C47 58.2042 47.3161 57.4412 47.8787 56.8786C48.4413 56.316 49.2043 55.9999 50 55.9999Z" fill="#D9450F"/>
</g>
<defs>
<clipPath id="clip0_19_368">
<rect width="48" height="48" fill="white" transform="translate(26 26)"/>
</clipPath>
</defs>
</svg>
