<svg width="100" height="100" viewBox="0 0 100 100" fill="none" xmlns="http://www.w3.org/2000/svg">
<rect width="100" height="100" rx="50" fill="#FDF6F3"/>
<path d="M41 62.469C40.5232 62.4695 40.0626 62.2962 39.7044 61.9815L27.7044 51.4815C27.4933 51.2967 27.3242 51.0689 27.2083 50.8135C27.0924 50.558 27.0325 50.2807 27.0325 50.0002C27.0325 49.7197 27.0924 49.4424 27.2083 49.187C27.3242 48.9315 27.4933 48.7037 27.7044 48.519L39.7044 38.019C40.0974 37.6751 40.6108 37.5014 41.1319 37.5361C41.6529 37.5709 42.1388 37.8111 42.4827 38.2041C42.8265 38.5971 43.0002 39.1106 42.9655 39.6316C42.9308 40.1526 42.6905 40.6385 42.2975 40.9824L31.9897 50.0002L42.2966 59.018C42.5982 59.2817 42.8122 59.6312 42.91 60.0198C43.0078 60.4084 42.9847 60.8175 42.8437 61.1926C42.7028 61.5677 42.4508 61.8909 42.1213 62.1189C41.7919 62.347 41.4007 62.4691 41 62.469ZM59 62.469C58.5992 62.4693 58.2079 62.3473 57.8783 62.1193C57.5487 61.8914 57.2965 61.5682 57.1555 61.1931C57.0145 60.8179 56.9913 60.4087 57.089 60.02C57.1868 59.6314 57.4008 59.2818 57.7025 59.018L68.0103 50.0002L57.7034 40.9824C57.3105 40.6385 57.0702 40.1526 57.0355 39.6316C57.0007 39.1106 57.1744 38.5971 57.5183 38.2041C57.8622 37.8111 58.348 37.5709 58.8691 37.5361C59.3901 37.5014 59.9036 37.6751 60.2966 38.019L72.2966 48.519C72.5076 48.7037 72.6768 48.9315 72.7926 49.187C72.9085 49.4424 72.9684 49.7197 72.9684 50.0002C72.9684 50.2807 72.9085 50.558 72.7926 50.8135C72.6768 51.0689 72.5076 51.2967 72.2966 51.4815L60.2966 61.9815C59.9381 62.2964 59.4771 62.4697 59 62.469ZM45.5 66.969C45.1934 66.9689 44.8911 66.8972 44.6171 66.7597C44.3431 66.6221 44.105 66.4224 43.9218 66.1766C43.7386 65.9307 43.6154 65.6455 43.5619 65.3436C43.5084 65.0417 43.5262 64.7315 43.6138 64.4377L52.6138 34.4377C52.6815 34.1831 52.7997 33.9448 52.9613 33.7367C53.1229 33.5286 53.3247 33.3551 53.5545 33.2264C53.7844 33.0977 54.0378 33.0165 54.2996 32.9875C54.5615 32.9586 54.8265 32.9824 55.0789 33.0577C55.3314 33.133 55.5662 33.2582 55.7694 33.4259C55.9725 33.5936 56.14 33.8004 56.2618 34.034C56.3836 34.2676 56.4573 34.5232 56.4786 34.7858C56.4998 35.0484 56.4681 35.3126 56.3853 35.5627L47.3853 65.5627C47.2642 65.9688 47.0154 66.325 46.6757 66.5783C46.3361 66.8317 45.9237 66.9687 45.5 66.969Z" fill="#D9450F"/>
</svg>
