<svg width="120" height="30" viewBox="0 0 120 30" fill="none" xmlns="http://www.w3.org/2000/svg">
<path d="M8 11V19M8 11C8.53043 11 9.03914 10.7893 9.41421 10.4142C9.78929 10.0391 10 9.53043 10 9C10 8.46957 9.78929 7.96086 9.41421 7.58579C9.03914 7.21071 8.53043 7 8 7C7.46957 7 6.96086 7.21071 6.58579 7.58579C6.21071 7.96086 6 8.46957 6 9C6 9.53043 6.21071 10.0391 6.58579 10.4142C6.96086 10.7893 7.46957 11 8 11ZM8 19C7.46957 19 6.96086 19.2107 6.58579 19.5858C6.21071 19.9609 6 20.4696 6 21C6 21.5304 6.21071 22.0391 6.58579 22.4142C6.96086 22.7893 7.46957 23 8 23C8.53043 23 9.03914 22.7893 9.41421 22.4142C9.78929 22.0391 10 21.5304 10 21C10 20.4696 9.78929 19.9609 9.41421 19.5858C9.03914 19.2107 8.53043 19 8 19ZM16 11C16.5304 11 17.0391 10.7893 17.4142 10.4142C17.7893 10.0391 18 9.53043 18 9C18 8.46957 17.7893 7.96086 17.4142 7.58579C17.0391 7.21071 16.5304 7 16 7C15.4696 7 14.9609 7.21071 14.5858 7.58579C14.2107 7.96086 14 8.46957 14 9C14 9.53043 14.2107 10.0391 14.5858 10.4142C14.9609 10.7893 15.4696 11 16 11ZM16 11C16 12.0609 15.5786 13.0783 14.8284 13.8284C14.0783 14.5786 13.0609 15 12 15H11C10.2044 15 9.44129 15.3161 8.87868 15.8787C8.31607 16.4413 8 17.2044 8 18" stroke="white" stroke-width="2" stroke-linecap="round" stroke-linejoin="round"/>
<path d="M38.6531 24.16V5.504H31.3571V1.6H49.9171V5.504H42.5251V24.16H38.6531ZM53.0594 5.952C51.8754 5.952 50.9154 4.96 50.9154 3.776C50.9154 2.592 51.8754 1.6 53.0594 1.6C54.2434 1.6 55.2354 2.592 55.2354 3.776C55.2354 4.96 54.2434 5.952 53.0594 5.952ZM54.8834 24.032H51.2034V6.88H54.8834V24.032ZM62.2809 20.32H63.7529V24.032H62.2809C59.6249 24.032 57.4809 21.888 57.4809 19.232V3.328H61.1929V7.84H63.6569V11.552H61.1929V19.232C61.1929 19.84 61.6729 20.32 62.2809 20.32ZM78.9156 18.624C78.9796 19.488 78.6596 20.8 77.6036 21.952C76.7076 22.88 75.0436 24.032 72.0996 24.032C69.4756 24.032 67.8756 22.976 67.0116 22.112C65.8916 20.96 65.2516 19.36 65.2836 17.696L68.7396 17.728C68.7396 18.08 68.8036 18.976 69.4756 19.68C70.0516 20.256 70.9476 20.544 72.0996 20.544C73.9236 20.544 74.7556 19.968 75.1396 19.488C75.3636 19.2 75.2676 18.752 74.9476 18.592C74.1156 18.144 72.5796 17.728 71.6516 17.44L71.0436 17.28C68.0356 16.384 65.2836 15.168 65.2836 12.096C65.2516 10.976 65.7956 9.824 66.7236 8.896C68.0036 7.616 69.8596 6.944 72.0036 6.944H72.0356C74.3396 6.944 76.1316 7.616 77.3476 8.96C78.7556 10.56 78.8836 12.48 78.8516 13.28V13.696H75.3956V13.28C75.3956 13.28 75.4596 12.064 74.7236 11.264C74.2116 10.688 73.2836 10.4 72.0356 10.4H72.0036C69.5716 10.4 68.9956 11.744 69.0276 12.096C69.0916 12.448 69.0916 13.056 72.0036 13.92L72.6116 14.112C75.4916 14.944 78.7236 15.872 78.9156 18.624ZM88.5024 6.88C91.1264 6.88 93.2704 9.024 93.2704 11.648V23.68H89.5264V22.976C88.1504 23.872 86.7744 24 86.1344 24C82.8064 24 80.1504 21.312 80.1504 18.016C80.1504 14.688 82.8064 12.032 86.1344 12.032H89.5264V11.648C89.5264 11.072 89.0784 10.592 88.5024 10.592H86.1344V6.88H88.5024ZM86.1344 20.256C88.3744 20.256 89.1744 17.664 89.4624 15.744H86.1344C84.8864 15.744 83.8624 16.768 83.8624 18.016C83.8624 19.264 84.8864 20.256 86.1344 20.256ZM100.468 20.32H101.94V24.032H100.468C97.8124 24.032 95.6684 21.888 95.6684 19.232V3.328H99.3804V7.84H101.844V11.552H99.3804V19.232C99.3804 19.84 99.8604 20.32 100.468 20.32ZM118.871 16.736H106.679C107.127 18.912 108.887 20.512 110.967 20.512C112.535 20.512 113.911 19.616 114.679 18.24H118.551C117.527 21.632 114.519 24.096 110.967 24.096C106.551 24.096 102.999 20.288 102.999 15.616C102.999 10.944 106.551 7.136 110.967 7.136C114.519 7.136 117.527 9.6 118.551 12.992C118.807 13.824 118.935 14.688 118.935 15.616C118.935 16 118.935 16.352 118.871 16.736ZM107.255 12.992H114.679C113.911 11.616 112.535 10.72 110.967 10.72C109.399 10.72 108.023 11.616 107.255 12.992Z" fill="white"/>
</svg>
